<svg version="1.1" id="logo-full_svg__Слой_1" xmlns="http://www.w3.org/2000/svg" x="0" y="0" viewBox="0 0 120 26" width="120" height="26" xml:space="preserve" class="el-popover__reference" aria-describedby="el-popover-4660" tabindex="0"><style>.logo-full_svg__st0{fill:#2185fb}.logo-full_svg__st1{fill:#116cd8}</style><path d="M100.9 3.1l3.2-3.1v17.1h-3.2v-14zM106.2 3.1l3.2-3.1v17.1h-3.2v-14z" class="logo-full_svg__st0"></path><path d="M116.8 0h3.2v17.1h-3.2z" class="logo-full_svg__st1"></path><path d="M109.4 0h7.4v3.1h-7.4zM109.4 14h7.4v3.1h-7.4z" class="logo-full_svg__st0"></path><path d="M117.2 20.8h1.3V26h-1.3zM109 20.8h1.3V26H109zM104.6 20.8h1.3V26h-1.3z" class="logo-full_svg__st1"></path><path d="M104.6 20.8h1.3l-3.7 5.2h-1.3l3.7-5.2z" class="logo-full_svg__st0"></path><path d="M110.3 20.8h2.3v1.3h-2.3zM110.3 24.7h2.3V26h-2.3z" class="logo-full_svg__st1"></path><path d="M110.3 22.8h2.3v1.3h-2.3z" class="logo-full_svg__st0"></path><path d="M115.8 20.8h4.2v1.3h-4.2z" class="logo-full_svg__st1"></path><path d="M115.8 20.8h1.5v1.3h-1.5z" class="logo-full_svg__st0"></path><path d="M0 17.1V0h3.3v14.4h7.8v2.7H0zm14.3 0V0H25v2.7h-7.5v4.5h6v2.7h-6v4.6h7.9v2.7H14.3zm12.7 0L33.2 0h3.4l6.2 17.1h-3.3L38 12.7h-6.2l-1.5 4.4H27zm5.8-7h4.8L36 5.6c-.3-.9-.7-2.6-.7-2.6h-.1s-.4 1.6-.7 2.6l-1.7 4.5zm13.3 7V0h6.2c5.6 0 9.2 3.1 9.2 8.5s-3.6 8.6-9.2 8.6h-6.2zm3.1-3h2.6c3.6 0 5.8-2 5.8-5.8 0-3.7-2.3-5.8-5.8-5.8h-2.6v11.6zm15.9 3V0h10.7v2.7h-7.5v4.5h6v2.7h-6v4.6h7.9v2.7H65.1zm14.9 0V0h6c1.8 0 2.7.1 3.4.5 1.9.7 3.1 2.4 3.1 4.7 0 2-1.1 3.9-3 4.7l.6.9 3.7 6.4H90l-3.6-6.4h-3.2v6.4H80zm3.7-9h3c1.8 0 2.9-1.1 2.9-2.8 0-1.1-.4-2-1.4-2.4-.5-.2-1-.3-2-.3h-2.4v5.5z" fill-rule="evenodd" clip-rule="evenodd" fill="#1e1e2f"></path></svg>