<svg width="24" height="24" viewBox="0 0 24 24" fill="none" xmlns="http://www.w3.org/2000/svg">
<rect width="24" height="24" fill="#E52127"/>
<path d="M11.0216 10.0304V11.2418H7V10.228C8.19124 8.33777 8.89845 7.16884 9.12162 6.72116C9.3478 6.27056 9.4609 5.91944 9.4609 5.66781C9.4609 5.47469 9.42621 5.33132 9.35685 5.23769C9.2905 5.14113 9.18797 5.09285 9.04924 5.09285C8.91051 5.09285 8.80647 5.14552 8.7371 5.25086C8.67076 5.35619 8.63758 5.5654 8.63758 5.87848V6.55438H7V6.29543C7 5.8975 7.02111 5.58442 7.06333 5.35619C7.10555 5.12504 7.2096 4.89828 7.37547 4.6759C7.54134 4.45353 7.75697 4.28528 8.02236 4.17117C8.28775 4.05706 8.60592 4 8.97686 4C9.70367 4 10.2525 4.17556 10.6235 4.52668C10.9974 4.87487 11.1844 5.31669 11.1844 5.85215C11.1844 6.25886 11.0789 6.68898 10.8678 7.1425C10.6597 7.59603 10.0429 8.55868 9.01757 10.0304H11.0216Z" fill="white"/>
<path d="M16.0429 6.54122V8.91126C16.0429 9.44964 16.0127 9.84172 15.9524 10.0875C15.8921 10.3333 15.7669 10.563 15.5769 10.7766C15.387 10.9902 15.1577 11.1438 14.8893 11.2374C14.6209 11.331 14.3209 11.3779 13.9891 11.3779C13.5518 11.3779 13.1884 11.3296 12.8989 11.233C12.6094 11.1335 12.3787 10.9799 12.2068 10.7722C12.0349 10.5644 11.9127 10.3465 11.8404 10.1182C11.768 9.88708 11.7318 9.52133 11.7318 9.02098V6.54122C11.7318 5.88872 11.7891 5.40008 11.9037 5.0753C12.0213 4.75051 12.252 4.4901 12.5958 4.29406C12.9426 4.09802 13.3618 4 13.8534 4C14.2545 4 14.6134 4.06876 14.9301 4.20628C15.2467 4.34088 15.4835 4.50619 15.6403 4.70224C15.7971 4.89828 15.9027 5.11919 15.9569 5.36497C16.0142 5.61075 16.0429 6.00283 16.0429 6.54122ZM14.2153 5.94432C14.2153 5.56686 14.1957 5.33132 14.1565 5.23769C14.1203 5.14113 14.0329 5.09285 13.8941 5.09285C13.7584 5.09285 13.6679 5.14406 13.6227 5.24647C13.5805 5.34595 13.5594 5.57857 13.5594 5.94432V9.4116C13.5594 9.82417 13.579 10.0729 13.6182 10.1577C13.6604 10.2426 13.7494 10.285 13.8851 10.285C14.0208 10.285 14.1098 10.2353 14.152 10.1358C14.1942 10.0363 14.2153 9.81246 14.2153 9.46427V5.94432Z" fill="white"/>
<path d="M17.4 10.7722V12.2205H16.0203V10.7722H17.4Z" fill="white"/>
<path d="M10.5511 15.8349C10.8286 15.9256 11.0351 16.0748 11.1709 16.2825C11.3066 16.4874 11.3744 16.9701 11.3744 17.7309C11.3744 18.2956 11.3081 18.7345 11.1754 19.0476C11.0427 19.3577 10.8135 19.5948 10.4878 19.7586C10.1621 19.9195 9.74438 20 9.23471 20C8.65568 20 8.20029 19.9064 7.86855 19.7191C7.53983 19.5289 7.32269 19.2978 7.21714 19.0256C7.1146 18.7506 7.06333 18.2751 7.06333 17.5992V17.0374H8.89091V18.1917C8.89091 18.499 8.909 18.695 8.94519 18.7799C8.9844 18.8618 9.06884 18.9028 9.19852 18.9028C9.34026 18.9028 9.43375 18.8501 9.47899 18.7448C9.52423 18.6394 9.54685 18.3644 9.54685 17.9196V17.4281C9.54685 17.1559 9.51518 16.957 9.45185 16.8312C9.38852 16.7053 9.29503 16.6234 9.17138 16.5854C9.04773 16.5444 8.80797 16.521 8.45211 16.5152V15.4837C8.88639 15.4837 9.15479 15.4677 9.25733 15.4355C9.35987 15.4033 9.43375 15.3331 9.47899 15.2248C9.52423 15.1165 9.54685 14.9468 9.54685 14.7157V14.3207C9.54685 14.072 9.5197 13.9081 9.46542 13.8291C9.41415 13.7501 9.33272 13.7106 9.22114 13.7106C9.09448 13.7106 9.00702 13.753 8.95877 13.8379C8.91353 13.9198 8.89091 14.0968 8.89091 14.3689V14.9527H7.06333V14.347C7.06333 13.6682 7.22317 13.2103 7.54285 12.9733C7.86252 12.7333 8.37068 12.6134 9.06733 12.6134C9.9389 12.6134 10.53 12.7787 10.8406 13.1093C11.1513 13.4399 11.3066 13.8993 11.3066 14.4874C11.3066 14.8854 11.2508 15.1736 11.1392 15.3521C11.0276 15.5276 10.8316 15.6886 10.5511 15.8349Z" fill="white"/>
<path d="M16.0203 12.7538V13.8905H13.7539V15.0975C14.0374 14.7727 14.4023 14.6103 14.8486 14.6103C15.3523 14.6103 15.7323 14.7479 15.9886 15.0229C16.248 15.295 16.3776 15.8202 16.3776 16.5985V17.6124C16.3776 18.1157 16.352 18.4858 16.3007 18.7228C16.2525 18.9569 16.1469 19.1749 15.9841 19.3768C15.8212 19.5757 15.5935 19.7293 15.301 19.8376C15.0115 19.9429 14.6571 19.9956 14.2379 19.9956C13.7675 19.9956 13.3528 19.9166 12.9939 19.7586C12.635 19.5977 12.3802 19.3592 12.2294 19.0432C12.0786 18.7272 12.0032 18.2386 12.0032 17.5773V17.1911H13.8308V17.6343C13.8308 18.0937 13.8474 18.42 13.8806 18.6131C13.9137 18.8062 14.0283 18.9028 14.2244 18.9028C14.3148 18.9028 14.3872 18.875 14.4415 18.8194C14.4988 18.7638 14.529 18.7038 14.532 18.6394C14.538 18.575 14.544 18.2956 14.5501 17.8011V16.3923C14.5501 16.126 14.5214 15.9446 14.4641 15.848C14.4068 15.7515 14.3118 15.7032 14.1791 15.7032C14.0947 15.7032 14.0238 15.7281 13.9665 15.7778C13.9092 15.8276 13.8715 15.8817 13.8534 15.9402C13.8383 15.9958 13.8308 16.1275 13.8308 16.3352H12.0213L12.0982 12.7538H16.0203Z" fill="white"/>
</svg>
